#
# Comment line
##
 #
:version 1.10
:name BioSkeleton
:units
   mass 1.0
   length 1.0
   angle deg
:documentation
   Example of an Acclaim skeleton
   To be used with "Walk.amc"
:root
   axis XYZ
   order TX TY TZ RZ RY RX
   position 0.0 0.0 0.0
   orientation 0.0 0.0 0.0
:bonedata
begin
   id 1
   name hips
   direction 0.000000 1.000000 0.000000
   length 0.000000
   axis 0.00000 0.00000 0.00000 XYZ
   dof rx ry rz
   limits (-180.0 180.0)
      (-180.0 180.0)
      (-180.0 180.0)
end
begin
   id 2
   name hips1
   direction 0.000000 1.000000 0.000000
   length  4.310000
   axis 0.000 0.000 0.000 XYZ
end
begin
   id 3
   name chest
   direction 0.000000 1.000000 0.000000
   length 0.000000
   axis 0.00000 0.00000 0.00000 XYZ
   dof rx ry rz
   limits (-180.0 180.0)
      (-180.0 180.0)
      (-180.0 180.0)
end
begin
   id 4
   name chest1
   direction 0.000000 1.000000 0.000000
   length  16.870001
   axis 0.000 0.000 0.000 XYZ
end
begin
   id 5
   name neck
   direction 0.000000 1.000000 0.000000
   length 4.020000
   axis 0.00000 0.00000 0.00000 XYZ
   dof rx ry rz
   limits (-180.0 180.0)
      (-180.0 180.0)
      (-180.0 180.0)
end
begin
   id 6
   name head
   direction 1.000000 0.000000 0.000000
   length 0.000000
   axis 0.00000 0.00000 0.00000 XYZ
   dof rx ry rz
   limits (-180.0 180.0)
      (-180.0 180.0)
      (-180.0 180.0)
end
begin
   id 7
   name chest2
   direction 0.068191 0.991126 0.114101
   length  14.811435
   axis 0.000 0.000 0.000 XYZ
end
begin
   id 8
   name leftcollar
   direction 1.000000 0.000000 0.000000
   length 4.830000
   axis 0.00000 0.00000 0.00000 XYZ
   dof rx ry rz
   limits (-180.0 180.0)
      (-180.0 180.0)
      (-180.0 180.0)
end
begin
   id 9
   name leftuparm
   direction 0.000000 -1.000000 0.000000
   length 12.160000
   axis 0.00000 0.00000 0.00000 XYZ
   dof rx ry rz
   limits (-180.0 180.0)
      (-180.0 180.0)
      (-180.0 180.0)
end
begin
   id 10
   name leftlowarm
   direction 0.000000 -1.000000 0.000000
   length 9.700000
   axis 0.00000 0.00000 0.00000 XYZ
   dof rx ry rz
   limits (-180.0 180.0)
      (-180.0 180.0)
      (-180.0 180.0)
end
begin
   id 11
   name lefthand
   direction 1.000000 0.000000 0.000000
   length 0.000000
   axis 0.00000 0.00000 0.00000 XYZ
   dof rx ry rz
   limits (-180.0 180.0)
      (-180.0 180.0)
      (-180.0 180.0)
end
begin
   id 12
   name chest3
   direction -0.068191 0.991126 0.114101
   length  14.811435
   axis 0.000 0.000 0.000 XYZ
end
begin
   id 13
   name rightcollar
   direction -1.000000 0.000000 0.000000
   length 5.390000
   axis 0.00000 0.00000 0.00000 XYZ
   dof rx ry rz
   limits (-180.0 180.0)
      (-180.0 180.0)
      (-180.0 180.0)
end
begin
   id 14
   name rightuparm
   direction 0.000000 -1.000000 0.000000
   length 12.480000
   axis 0.00000 0.00000 0.00000 XYZ
   dof rx ry rz
   limits (-180.0 180.0)
      (-180.0 180.0)
      (-180.0 180.0)
end
begin
   id 15
   name rightlowarm
   direction 0.000000 -1.000000 0.000000
   length 10.060000
   axis 0.00000 0.00000 0.00000 XYZ
   dof rx ry rz
   limits (-180.0 180.0)
      (-180.0 180.0)
      (-180.0 180.0)
end
begin
   id 16
   name righthand
   direction 1.000000 0.000000 0.000000
   length 0.000000
   axis 0.00000 0.00000 0.00000 XYZ
   dof rx ry rz
   limits (-180.0 180.0)
      (-180.0 180.0)
      (-180.0 180.0)
end
begin
   id 17
   name hips2
   direction 1.000000 0.000000 0.000000
   length  3.240000
   axis 0.000 0.000 0.000 XYZ
end
begin
   id 18
   name leftupleg
   direction 0.000000 -1.000000 0.000000
   length 17.290001
   axis 0.00000 0.00000 0.00000 XYZ
   dof rx ry rz
   limits (-180.0 180.0)
      (-180.0 180.0)
      (-180.0 180.0)
end
begin
   id 19
   name leftlowleg
   direction 0.000000 -1.000000 0.000000
   length 16.400000
   axis 0.00000 0.00000 0.00000 XYZ
   dof rx ry rz
   limits (-180.0 180.0)
      (-180.0 180.0)
      (-180.0 180.0)
end
begin
   id 20
   name leftfoot
   direction 1.000000 0.000000 0.000000
   length 0.000000
   axis 0.00000 0.00000 0.00000 XYZ
   dof rx ry rz
   limits (-180.0 180.0)
      (-180.0 180.0)
      (-180.0 180.0)
end
begin
   id 21
   name hips3
   direction -1.000000 0.000000 0.000000
   length  3.240000
   axis 0.000 0.000 0.000 XYZ
end
begin
   id 22
   name rightupleg
   direction 0.000000 -1.000000 0.000000
   length 17.680000
   axis 0.00000 0.00000 0.00000 XYZ
   dof rx ry rz
   limits (-180.0 180.0)
      (-180.0 180.0)
      (-180.0 180.0)
end
begin
   id 23
   name rightlowleg
   direction 0.000000 -1.000000 0.000000
   length 15.510000
   axis 0.00000 0.00000 0.00000 XYZ
   dof rx ry rz
   limits (-180.0 180.0)
      (-180.0 180.0)
      (-180.0 180.0)
end
begin
   id 24
   name rightfoot
   direction 1.000000 0.000000 0.000000
   length 0.000000
   axis 0.00000 0.00000 0.00000 XYZ
   dof rx ry rz
   limits (-180.0 180.0)
      (-180.0 180.0)
      (-180.0 180.0)
end
:hierarchy
begin
   root hips
   hips hips1 hips2 hips3
   hips1 chest
   chest chest1 chest2 chest3
   chest1 neck
   neck head
   chest2 leftcollar
   leftcollar leftuparm
   leftuparm leftlowarm
   leftlowarm lefthand
   chest3 rightcollar
   rightcollar rightuparm
   rightuparm rightlowarm
   rightlowarm righthand
   hips2 leftupleg
   leftupleg leftlowleg
   leftlowleg leftfoot
   hips3 rightupleg
   rightupleg rightlowleg
   rightlowleg rightfoot
end

:FULLY-SPECIFIED
:DEGREES
20
root -0.678599 36.502296 27.819874 1.175755 13.193773 -14.372403
hips 0.000000 0.000000 0.000000
chest 19.989803 -16.884130 -1.381337
neck 40.253201 0.000000 4.397081
head -35.650723 -0.880584 -8.804296
leftcollar 0.000000 5.687226 -2.166113
leftuparm -4.121291 -38.885380 28.334265
leftlowarm -44.830196 -7.133151 7.037093
lefthand 3.039849 0.053335 3.678116
rightcollar 0.000000 -3.897891 8.980980
rightuparm 22.348036 39.010910 -16.172495
rightlowarm -33.042004 0.793905 -0.516366
righthand -2.121491 -0.632198 2.927451
leftupleg 26.915617 -3.886718 7.605181
leftlowleg 35.970295 -4.983143 -0.041908
leftfoot 2.953382 5.746809 -5.926635
rightupleg -3.866231 0.031436 0.464965
rightlowleg 23.903856 -19.182566 -7.135209
rightfoot -9.277268 0.864240 8.985188
21
root -0.804686 36.782383 29.902700 0.899984 10.294015 -14.697801
hips 0.000000 0.000000 0.000000
chest 19.411886 -13.029170 -0.560605
neck 41.031029 0.000000 3.315624
head -35.318409 -1.254099 -7.912325
leftcollar 0.000000 6.127325 -3.110798
leftuparm -0.799178 -41.122910 27.279509
leftlowarm -42.334808 -5.087808 4.619081
lefthand 3.863389 -0.023720 4.320873
rightcollar 0.000000 -3.887935 8.026419
rightuparm 18.971849 40.724884 -17.633280
rightlowarm -34.464878 1.032683 -0.708737
righthand -2.212465 -0.529587 2.449016
leftupleg 20.920792 -2.423184 6.311280
leftlowleg 42.811275 -1.576019 0.893028
leftfoot 1.879941 5.745437 -6.033306
rightupleg 0.405296 -0.012890 1.820087
rightlowleg 22.160526 -16.482847 -6.558081
rightfoot -10.862224 1.114439 8.957797
22
root -0.889721 37.085831 31.900478 0.719509 7.140152 -14.862463
hips 0.000000 0.000000 0.000000
chest 19.009369 -8.802580 0.108132
neck 41.546017 0.000000 2.270839
head -35.040390 -1.628904 -6.827635
leftcollar 0.000000 6.479523 -3.881481
leftuparm 2.676305 -43.462502 26.124014
leftlowarm -40.693588 -2.787988 2.395163
lefthand 4.314970 -0.119626 4.860574
rightcollar 0.000000 -3.899740 7.029628
rightuparm 14.326987 41.968117 -20.277998
rightlowarm -35.924294 2.031572 -1.471294
righthand -2.328000 -0.402567 1.869974
leftupleg 14.579235 -1.277818 4.900648
leftlowleg 46.881706 2.247561 1.923597
leftfoot -1.318309 5.516920 -6.312367
rightupleg 5.022417 -0.203776 2.317757
rightlowleg 19.313425 -13.649567 -5.388946
rightfoot -12.201916 1.325247 8.929295
23
root -0.920950 37.364613 33.811832 0.579389 3.992616 -14.682099
hips 0.000000 0.000000 0.000000
chest 18.579885 -4.634137 0.732471
neck 41.773266 0.000000 1.143576
head -34.697430 -1.887564 -5.603226
leftcollar 0.000000 6.594274 -4.748614
leftuparm 6.351016 -45.367283 24.992294
leftlowarm -39.936974 -1.040785 0.871258
lefthand 4.490353 -0.171863 4.898797
rightcollar 0.000000 -3.742291 6.011616
rightuparm 9.018099 41.980423 -23.783340
rightlowarm -37.589275 3.379691 -2.598414
righthand -2.591177 -0.246958 1.176124
leftupleg 8.236456 -0.529210 3.650552
leftlowleg 47.472443 6.405956 2.896398
leftfoot -5.114162 5.215623 -6.618992
rightupleg 9.506766 -0.323815 1.932494
rightlowleg 15.883225 -10.801350 -3.701886
rightfoot -13.227888 1.486161 8.904111
24
root -0.903526 37.564499 35.655514 0.455909 0.930971 -14.242182
hips 0.000000 0.000000 0.000000
chest 18.234020 -0.662719 1.335870
neck 41.645638 0.000000 -0.067102
head -34.379753 -2.091926 -4.312730
leftcollar 0.000000 6.589643 -5.720291
leftuparm 9.833318 -46.489471 24.041512
leftlowarm -39.786499 -0.532506 0.443440
lefthand 4.791388 -0.144677 4.336989
rightcollar 0.000000 -3.539940 4.818536
rightuparm 3.618568 40.633938 -27.404854
rightlowarm -39.510040 4.534025 -3.729718
righthand -3.069324 -0.125857 0.622845
leftupleg 2.419356 -0.117303 2.774473
leftlowleg 44.498211 10.839417 3.651993
leftfoot -7.985025 4.948742 -6.828393
rightupleg 13.622124 -0.219592 0.906067
rightlowleg 12.479678 -8.117867 -1.800810
rightfoot -14.172570 1.633897 8.878407
25
root -0.895325 37.641209 37.509293 0.329603 -2.207276 -13.929316
hips 0.000000 0.000000 0.000000
chest 18.197479 3.248065 1.789072
neck 41.263889 0.000000 -1.368290
head -33.974625 -2.046360 -3.030507
leftcollar 0.000000 6.693655 -6.743622
leftuparm 12.946332 -47.117527 23.560492
leftlowarm -39.972034 -1.023591 0.857934
lefthand 5.065981 -0.100247 3.624192
rightcollar 0.000000 -3.226898 3.758190
rightuparm -1.123208 38.236626 -30.601130
rightlowarm -41.721043 5.240139 -4.655464
righthand -3.720558 -0.038811 0.194558
leftupleg -1.866969 0.081633 2.502992
leftlowleg 37.794998 15.426490 3.692472
leftfoot -8.853958 4.798633 -6.875569
rightupleg 17.551426 0.132435 -0.418698
rightlowleg 9.669954 -5.394161 -0.126652
rightfoot -15.255644 1.802701 8.845917
26
root -0.930529 37.552029 39.443291 -0.064205 -5.546815 -14.037470
hips 0.000000 0.000000 0.000000
chest 18.550486 7.117147 2.237415
neck 40.768776 0.000000 -2.443756
head -33.547470 -1.785629 -2.032308
leftcollar 0.000000 6.892878 -7.564698
leftuparm 15.939232 -47.130531 23.140190
leftlowarm -40.182598 -1.803541 1.522562
lefthand 5.390771 -0.079686 3.263239
rightcollar 0.000000 -2.752291 2.939735
rightuparm -4.993390 35.391994 -33.190788
rightlowarm -44.143707 5.590269 -5.400964
righthand -4.526936 -0.003471 0.017578
leftupleg -4.121441 0.218477 3.029131
leftlowleg 27.817278 19.796005 2.685264
leftfoot -8.403909 4.750456 -6.828479
rightupleg 21.462347 0.654440 -1.664087
rightlowleg 7.880943 -2.555799 1.006080
rightfoot -16.723310 2.030340 8.796822
27
root -0.995575 37.294521 41.463470 -0.933786 -8.809573 -14.478047
hips 0.000000 0.000000 0.000000
chest 19.116407 10.650530 2.947094
neck 40.401543 0.000000 -3.301487
head -33.370514 -1.351436 -1.316858
leftcollar 0.000000 7.235794 -8.141797
leftuparm 18.687817 -47.081375 22.686501
leftlowarm -40.173641 -1.602683 1.352681
lefthand 5.675120 -0.093881 3.367022
rightcollar 0.000000 -2.286681 2.408376
rightuparm -8.301312 32.680565 -35.427353
rightlowarm -46.419991 5.738631 -5.998280
righthand -5.370874 0.051437 -0.263894
leftupleg -4.780034 0.355213 4.239878
leftlowleg 15.894613 23.011881 0.797520
leftfoot -6.969730 4.762732 -6.708940
rightupleg 25.102119 1.207160 -2.574773
rightlowleg 7.416439 0.168626 1.522972
rightfoot -18.562305 2.313611 8.727157
28
root -1.025625 36.906391 43.554150 -2.160476 -11.510956 -15.023560
hips 0.000000 0.000000 0.000000
chest 19.675983 13.365514 3.930178
neck 39.948566 0.000000 -3.986970
head -33.192909 -0.786019 -0.873776
leftcollar 0.000000 7.468105 -8.504051
leftuparm 21.180090 -46.703018 21.988264
leftlowarm -39.814880 -0.203169 0.169363
lefthand 5.791697 -0.130937 3.636671
rightcollar 0.000000 -1.884506 1.994707
rightuparm -11.120643 30.129753 -37.241909
rightlowarm -48.369175 5.955280 -6.658138
righthand -6.003567 0.102365 -0.543456
leftupleg -4.779463 0.475391 5.667012
leftlowleg 4.632329 24.307671 -1.001671
leftfoot -4.906528 4.767021 -6.535824
rightupleg 28.254610 1.694889 -3.150059
rightlowleg 8.220258 2.442764 1.519642
rightfoot -20.427370 2.598337 8.647209
29
root -0.990524 36.474316 45.741516 -3.377869 -13.543739 -15.564572
hips 0.000000 0.000000 0.000000
chest 20.080826 15.271617 4.833224
neck 39.604561 0.000000 -4.392245
head -33.102898 -0.275700 -0.568838
leftcollar 0.000000 7.625570 -8.761290
leftuparm 23.304699 -46.818752 21.134815
leftlowarm -39.301991 2.144859 -1.754712
lefthand 6.091946 -0.171373 3.942687
rightcollar 0.000000 -1.696486 1.849531
rightuparm -13.370600 28.019464 -38.709641
rightlowarm -49.829533 6.115633 -7.192674
righthand -6.400350 0.170965 -0.945503
leftupleg -4.680850 0.565335 6.871119
leftlowleg -3.356673 24.115681 -1.864121
leftfoot -2.570266 4.749730 -6.339538
rightupleg 30.869638 2.189086 -3.656234
rightlowleg 10.141356 4.148111 1.173551
rightfoot -21.751364 2.798738 8.584854
30
root -0.884113 36.089104 48.075836 -4.325562 -15.091268 -16.255184
hips 0.000000 0.000000 0.000000
chest 20.407066 16.624048 5.401046
neck 39.409119 0.000000 -4.541859
head -33.104202 0.090731 -0.374214
leftcollar 0.000000 7.725649 -8.987947
leftuparm 25.150331 -47.875122 20.146805
leftlowarm -38.900196 4.499817 -3.622355
lefthand 6.905888 -0.222750 4.275362
rightcollar 0.000000 -1.605214 1.888179
rightuparm -14.553249 26.311363 -39.385735
rightlowarm -50.850140 6.324973 -7.706472
righthand -6.539586 0.226965 -1.295601
leftupleg -4.415859 0.591023 7.608119
leftlowleg -6.900389 23.532595 -1.863137
leftfoot -0.317082 4.759114 -6.152940
rightupleg 33.098938 2.840290 -4.347025
rightlowleg 13.017771 5.553099 0.552625
rightfoot -21.795988 2.805483 8.582676
31
root -0.709824 35.829082 50.581383 -4.808494 -16.318214 -17.044170
hips 0.000000 0.000000 0.000000
chest 20.473347 17.751118 5.501290
neck 39.581993 0.000000 -4.559215
head -33.166035 0.304712 -0.075701
leftcollar 0.000000 7.567477 -9.292825
leftuparm 26.837851 -49.473991 19.113064
leftlowarm -38.694031 6.280128 -5.007404
lefthand 7.802380 -0.270388 4.495199
rightcollar 0.000000 -1.499152 2.182799
rightuparm -14.240871 25.166513 -39.259663
rightlowarm -51.379013 6.454360 -8.009504
righthand -6.601982 0.276671 -1.614289
leftupleg -3.934596 0.526837 7.614833
leftlowleg -6.202096 23.144985 -1.234622
leftfoot 1.497445 4.830620 -6.002152
rightupleg 34.647491 3.715914 -5.357557
rightlowleg 17.003920 6.805292 -0.179811
rightfoot -19.810822 2.504544 8.674650
32
root -0.478598 35.714775 53.227524 -4.803887 -17.126728 -17.838516
hips 0.000000 0.000000 0.000000
chest 20.225897 18.468035 5.100726
neck 40.036255 0.000000 -4.341609
head -33.215454 0.273227 0.118777
leftcollar 0.000000 7.373880 -9.451167
leftuparm 28.003227 -51.228310 18.139841
leftlowarm -38.749241 7.303638 -5.825610
lefthand 8.733152 -0.310562 4.616753
rightcollar 0.000000 -1.387237 2.543918
rightuparm -12.570065 24.751259 -38.317059
rightlowarm -51.444809 6.511153 -8.097557
righthand -6.577071 0.291743 -1.717317
leftupleg -3.241406 0.392963 6.905775
leftlowleg -2.294141 22.832985 -0.387984
leftfoot 2.589110 4.931059 -5.909366
rightupleg 35.128025 4.631573 -6.547354
rightlowleg 22.256075 7.773814 -0.781118
rightfoot -14.950150 1.755160 8.855399
